# xmcd
#
# Track frame offsets:
#	150
#	18355
#	27299
#	46680
#	58530
#	70269
#	85629
#	104901
#	120367
#	135255
#	151001
#	166981
#	184454
#	193454
#	207626
#	226532
#	244015
#
# Disc length: 3455 seconds
#
# Revision: 1
# Processed by: cddbd v1.5.2PL0 Copyright (c) Steve Scherf et al.
# Submitted via: audiograbber 1.83.01
#
DISCID=dc0d7d11
DTITLE=Muck - AMIGA SCHLAGER - Muck
DYEAR=1900
DGENRE=WSchlager
TTITLE0=Zum ersten Mal
TTITLE1=Baby, warte
TTITLE2=Tina, verzeih mir doch
TTITLE3=Oh, Lilly
TTITLE4=All diese Blumen
TTITLE5=Denn ab morgen scheint wieder die Sonne
TTITLE6=Was kann ich tun
TTITLE7=He, kleine Linda
TTITLE8=Oh, Sindy, Sindy
TTITLE9=Vogel im Baum
TTITLE10=Du und ich
TTITLE11=Schokolade
TTITLE12=Regen
TTITLE13=Und wir gehn
TTITLE14=Eh' der Morgen graut
TTITLE15=Blacky
TTITLE16=Mimi und Tom (Duett mit Evelin)
EXTD=
EXTT0=
EXTT1=
EXTT2=
EXTT3=
EXTT4=
EXTT5=
EXTT6=
EXTT7=
EXTT8=
EXTT9=
EXTT10=
EXTT11=
EXTT12=
EXTT13=
EXTT14=
EXTT15=
EXTT16=
PLAYORDER=
